<svg width="979" height="170" viewBox="0 0 979 170" fill="none" xmlns="http://www.w3.org/2000/svg">
<path d="M0 80L174 80V167L154.611 167V100.742L19.3887 100.742L19.3887 167L0 167L0 80Z" fill="black"/>
<path d="M0 80L174 80V167L154.611 167V100.742L19.3887 100.742L19.3887 167L0 167L0 80Z" stroke="black"/>
<path d="M287 148.095H301.233V18.5714H287V0H354.131C362.038 0 368.996 1.11111 375.006 3.33333C381.173 5.55555 386.313 8.57143 390.425 12.381C394.694 16.1905 397.857 20.7937 399.913 26.1905C402.127 31.4286 403.234 37.1429 403.234 43.3333V46.1905C403.234 50.7937 402.522 55 401.099 58.8095C399.676 62.6191 397.699 66.0318 395.169 69.0476C392.639 72.0635 389.634 74.6825 386.155 76.9048C382.834 78.9683 379.196 80.5556 375.243 81.6667V84.5238C383.15 86.746 389.792 91.0317 395.169 97.381C400.546 103.571 403.234 111.19 403.234 120.238V123.095C403.234 129.286 402.127 135.079 399.913 140.476C397.857 145.714 394.694 150.317 390.425 154.286C386.313 158.095 381.173 161.111 375.006 163.333C368.996 165.556 362.038 166.667 354.131 166.667H287V148.095ZM321.159 148.095H352.708C362.038 148.095 369.629 145.794 375.48 141.19C381.331 136.429 384.257 129.921 384.257 121.667V120.238C384.257 111.667 381.49 104.921 375.955 100C370.42 94.9206 362.908 92.381 353.419 92.381H321.159V148.095ZM321.159 73.8095H353.419C362.908 73.8095 370.42 71.3492 375.955 66.4286C381.49 61.5079 384.257 54.7619 384.257 46.1905V44.7619C384.257 36.6667 381.331 30.3175 375.48 25.7143C369.629 20.9524 362.038 18.5714 352.708 18.5714H321.159V73.8095Z" fill="black"/>
<path d="M452.884 113.333C453.358 125.079 456.995 134.524 463.795 141.667C470.595 148.81 480.084 152.381 492.261 152.381C497.796 152.381 502.619 151.746 506.731 150.476C510.842 149.206 514.322 147.46 517.168 145.238C520.173 143.016 522.545 140.476 524.285 137.619C526.182 134.603 527.685 131.429 528.792 128.095L546.345 132.857C543.024 143.81 536.857 152.778 527.843 159.762C518.987 166.587 506.968 170 491.786 170C483.405 170 475.656 168.571 468.54 165.714C461.581 162.698 455.572 158.492 450.512 153.095C445.451 147.698 441.497 141.27 438.651 133.81C435.804 126.349 434.381 118.095 434.381 109.048V103.333C434.381 95.0794 435.804 87.381 438.651 80.2381C441.656 73.0952 445.767 66.9841 450.986 61.9048C456.205 56.6667 462.293 52.6191 469.251 49.7619C476.368 46.746 484.038 45.2381 492.261 45.2381C501.908 45.2381 510.21 47.0635 517.168 50.7143C524.285 54.2063 530.057 58.5714 534.485 63.8095C539.071 69.0476 542.392 74.7619 544.448 80.9524C546.662 87.1429 547.769 92.8571 547.769 98.0952V113.333H452.884ZM492.261 62.8571C487.042 62.8571 482.14 63.7302 477.554 65.4762C473.126 67.0635 469.172 69.3651 465.693 72.381C462.372 75.3968 459.605 78.9683 457.391 83.0952C455.335 87.0635 453.991 91.4286 453.358 96.1905H529.266C528.95 91.1111 527.685 86.5079 525.471 82.381C523.415 78.254 520.647 74.7619 517.168 71.9048C513.847 69.0476 509.973 66.8254 505.545 65.2381C501.275 63.6508 496.847 62.8571 492.261 62.8571Z" fill="black"/>
<path d="M603.111 166.667H584.609V48.5714H603.111V68.5714H605.958C613.232 53.0159 625.884 45.2381 643.912 45.2381C657.512 45.2381 668.345 49.5238 676.41 58.0952C684.475 66.5079 688.508 79.2063 688.508 96.1905V166.667H670.005V100C670.005 87.619 667.238 78.3333 661.703 72.1429C656.168 65.9524 648.656 62.8571 639.168 62.8571C627.939 62.8571 619.084 66.746 612.6 74.5238C606.274 82.1429 603.111 92.381 603.111 105.238V166.667Z" fill="black"/>
<path d="M839.921 124.762C838.656 131.27 836.442 137.302 833.279 142.857C830.275 148.413 826.4 153.254 821.656 157.381C816.912 161.349 811.377 164.444 805.051 166.667C798.725 168.889 791.688 170 783.939 170C775.716 170 767.888 168.651 760.455 165.952C753.181 163.254 746.776 159.365 741.241 154.286C735.706 149.048 731.278 142.698 727.957 135.238C724.794 127.778 723.213 119.206 723.213 109.524V106.667C723.213 97.1429 724.794 88.5714 727.957 80.9524C731.278 73.3333 735.706 66.9048 741.241 61.6667C746.776 56.4286 753.181 52.3809 760.455 49.5238C767.888 46.6667 775.716 45.2381 783.939 45.2381C791.372 45.2381 798.251 46.3492 804.577 48.5714C810.902 50.7937 816.437 53.9683 821.182 58.0952C826.084 62.0635 830.037 66.8254 833.042 72.381C836.205 77.9365 838.34 83.9683 839.447 90.4762L820.944 94.7619C820.47 90.6349 819.284 86.6667 817.386 82.8571C815.647 78.8889 813.195 75.4762 810.033 72.619C807.028 69.6032 803.312 67.2222 798.884 65.4762C794.456 63.7302 789.316 62.8571 783.465 62.8571C777.772 62.8571 772.395 63.9683 767.334 66.1905C762.432 68.254 758.083 71.2698 754.288 75.2381C750.492 79.0476 747.488 83.6508 745.274 89.0476C743.218 94.4444 742.19 100.317 742.19 106.667V109.524C742.19 116.19 743.218 122.222 745.274 127.619C747.488 132.857 750.492 137.302 754.288 140.952C758.083 144.603 762.511 147.46 767.572 149.524C772.632 151.429 778.088 152.381 783.939 152.381C789.791 152.381 794.851 151.508 799.121 149.762C803.549 147.857 807.265 145.476 810.27 142.619C813.433 139.603 815.884 136.19 817.623 132.381C819.521 128.571 820.786 124.603 821.419 120.476L839.921 124.762Z" fill="black"/>
<path d="M893.604 166.667H875.101V0H893.604V70H896.45C900.087 62.381 905.148 56.3492 911.632 51.9048C918.274 47.4603 926.339 45.2381 935.827 45.2381C948.637 45.2381 958.995 49.5238 966.902 58.0952C974.967 66.5079 979 79.2063 979 96.1905V166.667H960.497V100C960.497 87.619 957.73 78.3333 952.195 72.1429C946.66 65.9524 939.148 62.8571 929.66 62.8571C918.432 62.8571 909.576 66.746 903.092 74.5238C896.767 82.1429 893.604 92.381 893.604 105.238V166.667Z" fill="black"/>
</svg>
